<svg width="640" height="480" xmlns="http://www.w3.org/2000/svg" xmlns:svg="http://www.w3.org/2000/svg">
 <!-- Created with SVG-edit - https://github.com/SVG-Edit/svgedit-->

 <g class="layer">
  <title>Layer 1</title>
  <ellipse cx="307.5" cy="238.39999" fill="#7f7f00" id="svg_1" rx="206" ry="204" stroke="#000000" stroke-width="5"/>
  <ellipse cx="231.5" cy="155.39999" fill="#3f7f00" id="svg_2" rx="41" ry="43" stroke="#000000" stroke-width="5"/>
  <ellipse cx="370.5" cy="155.39999" fill="#3f7f00" id="svg_3" rx="55" ry="78" stroke="#000000" stroke-width="5"/>
  <ellipse cx="230.5" cy="152.39999" fill="#007f3f" id="svg_6" rx="11" ry="12" stroke="#000000" stroke-width="5"/>
  <ellipse cx="362.5" cy="152.39999" fill="#007f3f" id="svg_7" rx="20" ry="21" stroke="#000000" stroke-width="5"/>
  <path d="m193.5,372.39999c1.28667,-0.96399 1.99916,-0.99774 3.03067,-1c0.85199,-0.00186 1.79471,0.00732 2.48534,0c0.98416,-0.01044 1.96086,-0.30154 2.65866,-0.57468c0.9324,-0.36499 1.71503,-0.49347 2.4825,-0.77798c0.75323,-0.27924 1.73912,-0.59769 2.68567,-0.64285c0.89902,-0.04291 1.70825,-0.31335 2.41434,-0.65182c0.85034,-0.40762 1.76703,-0.24487 2.74283,-0.3735c0.83839,-0.1105 1.52289,-0.49582 2.5,-0.97916c0.60129,-0.29742 1.39999,-0.70001 2.39999,-1.20001c0.60001,-0.29999 1.60001,-0.79996 2.20001,-1.09998c0.8,-0.39999 1.59999,-0.80002 2.39999,-1.20001c1,-0.5 1.64702,-0.72873 2.34283,-1.25717c0.84357,-0.64066 1.06857,-1.59512 1.85851,-2.07217c0.60291,-0.36411 1.65063,-0.13568 2.48532,-0.25598c1.00809,-0.14529 1.83553,-0.43127 2.41785,-0.61917c1.19818,-0.38663 1.78416,-0.61414 2.6595,-0.8595c1.0618,-0.29764 1.78543,-0.33929 2.63148,-0.48868c1.01381,-0.17902 1.74576,-0.59387 2.72185,-0.86331c0.6804,-0.18784 1.65622,-0.35629 2.40349,-0.60486c0.80128,-0.26654 1.78502,-0.69971 2.45834,-0.95831c1.0087,-0.38739 1.81042,-0.478 2.85416,-0.52084c0.75623,-0.03107 1.50807,-0.53732 2.37067,-0.91733c0.63576,-0.28009 1.55864,-0.52921 2.49333,-0.93335c0.69742,-0.30154 1.40657,-0.63409 2.481,-0.90649c0.65262,-0.16547 1.58553,-0.19568 2.65501,-0.40948c0.72351,-0.14465 1.60757,-0.53702 2.58798,-0.71201c0.79712,-0.14227 1.63995,-0.10397 2.65735,-0.34283c0.70901,-0.16647 1.3689,-0.49576 2.3425,-0.87851c0.78949,-0.31036 1.59167,-0.55518 2.61084,-1.09866c0.63394,-0.33807 1.50818,-0.70871 2.23999,-0.76532c0.83511,-0.06458 2.02783,-0.03601 2.6235,-0.03601c0.8685,0 1.93784,0 2.87915,0c0.67801,0 1.647,0 2.47202,0c0.91498,0 1.91998,0 2.63867,0c0.75064,0 1.91916,0.00101 3.11465,0c0.79733,-0.00067 1.57925,0.00296 2.328,-0.03601c0.70212,-0.03653 1.90372,-0.24011 2.63034,-0.46399c1.0452,-0.32205 1.84109,-0.48077 2.64166,-0.49866c0.99976,-0.02231 1.79999,-0.00134 2.80133,-0.00134c0.61951,0 1.76532,0 2.55133,0c0.82199,0 1.88068,0 2.58566,0c0.97501,0 1.83633,0 2.78317,0c0.88916,0 1.87991,0.02917 2.69934,-0.02084c0.66638,-0.04068 1.66388,-0.26553 2.5,-0.47916c0.58322,-0.14902 1.77722,-0.40216 2.67917,-0.46399c0.59909,-0.04108 1.79999,-0.03601 2.70898,-0.03601c0.63266,0 1.66168,0 2.83401,0c0.42764,0 1.32898,0 2.27832,0c0.48767,0 1.97867,0 2.97867,0c0.5,0 1.5,0 2,0c1,0 2.49966,0 2.99734,0c0.98132,0 1.93066,0 2.38834,0c1.28098,0 2.04364,0 3.07266,0c0.63266,0 1.84149,0 2.73099,0c0.85352,0 1.88916,0 2.57468,0c0.83466,0 1.84048,0 2.69315,0c0.96436,0 1.77884,0 2.64734,0c0.89551,0 1.79315,-0.0325 2.65952,0.03601c1.07394,0.08493 1.76874,0.34766 2.6315,0.61133c0.99286,0.30344 1.77017,0.29617 2.72049,0.354c0.77115,0.04694 1.7225,0.42941 2.28851,0.70316c1.00269,0.48492 1.62189,0.82855 2.36615,1.01016c1.1821,0.28845 1.90152,0.2572 2.65067,0.31067c0.78156,0.05576 1.98227,0.17715 2.77869,0.33633c0.80408,0.16071 1.61121,0.36816 2.79999,0.80499c0.80551,0.29599 1.58163,0.65244 2.328,1.008c0.70416,0.33545 1.62509,0.81213 2.41068,1.18936c0.70596,0.33899 1.68018,0.74332 2.49731,1.03598c0.57285,0.20517 1.76343,0.60175 2.36533,0.80002c0.91867,0.30264 1.55228,0.51227 2.56534,0.79999c1.08685,0.30869 1.85049,0.49796 2.63785,0.64282c1.19058,0.21906 1.99393,0.27664 2.78482,0.33185c0.77444,0.05408 1.53116,0.06998 2.58902,0.24683c0.66458,0.11111 1.58542,0.36133 2.655,0.7785c0.72153,0.2814 1.38412,0.61905 2.33331,1c0.77542,0.31119 1.56168,0.60257 2.5,0.83334c0.93924,0.23099 1.8356,0.41577 2.508,0.77731c0.82901,0.44577 1.4556,1.06021 2.36801,1.26785c0.9386,0.21359 1.69611,0.0123 2.64301,0.12598c0.93314,0.11203 1.54968,0.71823 2.46701,0.94284c0.849,0.20789 1.62543,0.66995 2.54733,0.96735c0.86038,0.27756 1.94894,-0.25186 2.63333,0.25198c0.65298,0.48074 0.97665,1.32449 1.60266,1.80801c0.7496,0.57901 1.43973,0.7793 2.38934,1c0.99948,0.2323 1.62457,0.58371 2.47464,0.97266c0.87424,0.39999 1.43198,0.93216 2.20001,1.53183c0.64981,0.50739 1.69852,0.32297 2.41733,0.80484c0.65909,0.44183 1.43451,0.71313 2.3255,0.716c0.95584,0.00308 1.67316,0.284 2.19318,0.96399l0.86398,0.03601" fill="none" id="svg_10" stroke="#000000" stroke-width="5"/>
  <path d="m292.5,182.39999c0,1.75717 0,2.65717 0,3.4045c0,0.9955 0,1.7955 0,2.79533c0,0.77934 0.10065,1.78365 0,2.80017c-0.08374,0.84569 -0.8028,1.23541 -0.94284,2.0715c-0.12585,0.75145 -0.04263,1.9287 -0.06165,2.8195c-0.01788,0.83739 -0.1488,1.78128 -0.49551,2.58817c-0.36456,0.84846 -0.48303,1.54158 -0.5,2.52083c-0.01385,0.79996 -0.02942,1.61673 -0.35266,2.5955c-0.25192,0.7628 -0.55789,1.66444 -0.814,2.73782c-0.16281,0.68245 -0.45102,1.44232 -0.66669,2.5c-0.14267,0.69975 -0.086,1.56461 -0.60266,2.54134c-0.45462,0.85947 -1.02197,1.43567 -1.27866,2.22667c-0.31482,0.97021 -0.28247,1.7415 -0.28534,2.64149c-0.00305,0.95851 -0.16193,1.9257 -0.436,2.6145c-0.26395,0.66333 -0.66479,1.78531 -0.8685,2.4525c-0.21701,0.71078 -0.41257,1.45804 -0.86215,2.5235c-0.29175,0.69139 -0.83167,1.62601 -1.18066,2.205c-0.62799,1.04184 -1.06311,1.69049 -1.36603,2.47501c-0.32422,0.83968 -0.46835,1.827 -0.8075,2.48666c-0.51996,1.01137 -1.03537,1.46178 -1.57898,2.3215c-0.4252,0.67242 -0.74915,1.67589 -0.87485,2.4785c-0.12494,0.79771 -0.34476,1.81387 -0.63599,2.364c-0.52383,0.98955 -1.11703,1.5705 -1.58936,2.31999c-0.42554,0.67525 -1.02158,1.61565 -1.5,2.26868c-0.52423,0.71553 -0.90213,1.45692 -1.29999,2.24733c-0.40216,0.79892 -0.78577,1.6073 -1.20001,2.39734c-0.38684,0.73772 -1.25235,1.32896 -1.74731,1.95982c-0.56052,0.71445 -0.94165,1.36751 -1.53183,2.14284c-0.55908,0.73447 -0.92044,1.35616 -1.72086,1.784c-0.85583,0.45746 -1.60242,0.63118 -2.29999,1.25768c-0.73193,0.65736 -0.95157,1.48936 -1.5,2.29167c-0.46091,0.67426 -1.10233,1.26437 -1.70001,1.86667c-0.69202,0.69733 -1.02008,1.46722 -1.46664,2.29999c-0.36313,0.67715 -1.32376,1.18915 -2.008,1.60001c-0.81146,0.48724 -1.21109,1.10773 -1.82535,1.87915c-0.49567,0.6225 -1.56956,0.40942 -2.3,0.87802c-0.79991,0.51318 -1.2182,1.16629 -1.86667,1.80948c-0.65602,0.6507 -1.1198,1.22623 -2.07616,1.72351c-0.81529,0.42395 -1.58134,0.55032 -2.32117,1.13516c-0.67822,0.53613 -1.23776,0.94681 -2.136,0.97467c-0.94412,0.0293 -1.31885,0.77377 -1.65266,1.65268c-0.26791,0.70538 -0.57785,1.7352 -1.07268,2.32199c-0.51096,0.6059 -0.57466,1.50934 -0.57466,2.37265c0,0.89551 -0.0795,1.86887 0.08533,2.53802c0.23756,0.96445 0.88408,1.84427 1.55067,2.12933c0.81807,0.34985 1.49936,0.70453 2.60683,0.92816c0.84209,0.17004 1.89507,-0.26462 2.5905,0.22382c0.71519,0.50232 1.4102,0.69162 2.16667,1c0.69972,0.28525 1.49832,0.67813 2.34734,0.88602c0.91731,0.22461 1.74504,0.88519 2.45265,0.94598c0.95367,0.08194 1.85272,-0.00403 2.716,0.00134c0.85873,0.00534 1.79861,0.23929 2.50485,0.5c0.97034,0.35822 1.78934,0.48074 2.66449,0.49866c0.99713,0.02042 1.79382,0.00134 2.54532,0.00134c1.108,0 1.936,0 2.79019,0c0.97916,0 1.76849,0 2.8125,0c0.79199,0 1.65067,-0.00458 2.51398,0c1.00604,0.00534 1.46365,0.67206 2.19434,0.97916c0.86896,0.36523 1.80566,0.02084 2.70117,0.02084c0.9585,0 1.64252,0 2.59317,0c0.76532,0 1.76401,0 2.564,0c0.99869,0 1.94284,0 2.84283,0c0.95718,0 1.85718,0 2.75717,0c0.79999,0 1.70001,0 2.52084,0c0.96317,0 1.83362,0.1084 2.72198,-0.00449c0.87729,-0.11145 1.4848,-0.75592 2.41434,-0.93835c0.73517,-0.14429 1.75684,0.064 2.68567,-0.11432c0.93588,-0.17966 1.54117,-0.74417 2.30984,-1.23834l0.69464,-0.34732l1.01669,-0.32117" fill="none" id="svg_11" stroke="#000000" stroke-width="5"/>
 </g>
</svg>